REM GENRE "Test"
REM DATE 1992
PERFORMER "Test Artist"
TITLE "Test Vinyl Album"
FILE "vinyl_album.flac" WAVE
  TRACK 01 AUDIO
    TITLE "Track A1"
    PERFORMER "Test Artist"
    INDEX 01 00:00:00
  TRACK 02 AUDIO
    TITLE "Track A2"
    PERFORMER "Test Artist"
    INDEX 01 02:00:00
  TRACK 03 AUDIO
    TITLE "Track A3"
    PERFORMER "Test Artist"
    INDEX 01 05:00:00
  TRACK 04 AUDIO
    TITLE "Track A4"
    PERFORMER "Test Artist"
    INDEX 01 09:00:00
  TRACK 05 AUDIO
    TITLE "Track A5"
    PERFORMER "Test Artist"
    INDEX 01 12:30:00
  TRACK 06 AUDIO
    TITLE "Track A6"
    PERFORMER "Test Artist"
    INDEX 01 15:15:00
  TRACK 07 AUDIO
    TITLE "Track A7"
    PERFORMER "Test Artist"
    INDEX 01 19:30:00
  TRACK 08 AUDIO
    TITLE "Track B1"
    PERFORMER "Test Artist"
    INDEX 01 23:15:00
  TRACK 09 AUDIO
    TITLE "Track B2"
    PERFORMER "Test Artist"
    INDEX 01 25:45:00
  TRACK 10 AUDIO
    TITLE "Track B3"
    PERFORMER "Test Artist"
    INDEX 01 29:00:00
  TRACK 11 AUDIO
    TITLE "Track B4"
    PERFORMER "Test Artist"
    INDEX 01 31:00:00
  TRACK 12 AUDIO
    TITLE "Track B5"
    PERFORMER "Test Artist"
    INDEX 01 34:00:00
  TRACK 13 AUDIO
    TITLE "Track B6"
    PERFORMER "Test Artist"
    INDEX 01 36:15:00
  TRACK 14 AUDIO
    TITLE "Track B7"
    PERFORMER "Test Artist"
    INDEX 01 37:45:00
  TRACK 15 AUDIO
    TITLE "Track B8"
    PERFORMER "Test Artist"
    INDEX 01 41:15:00
  TRACK 16 AUDIO
    TITLE "Track B9"
    PERFORMER "Test Artist"
    INDEX 01 45:15:00

